%TF.GenerationSoftware,KiCad,Pcbnew,9.0.8*%
%TF.CreationDate,2026-03-27T19:25:05+09:00*%
%TF.ProjectId,Split_keyboard_analog_pad,53706c69-745f-46b6-9579-626f6172645f,rev?*%
%TF.SameCoordinates,Original*%
%TF.FileFunction,Profile,NP*%
%FSLAX46Y46*%
G04 Gerber Fmt 4.6, Leading zero omitted, Abs format (unit mm)*
G04 Created by KiCad (PCBNEW 9.0.8) date 2026-03-27 19:25:05*
%MOMM*%
%LPD*%
G01*
G04 APERTURE LIST*
%TA.AperFunction,Profile*%
%ADD10C,0.050000*%
%TD*%
%TA.AperFunction,Profile*%
%ADD11C,0.100000*%
%TD*%
G04 APERTURE END LIST*
D10*
X222250000Y163100000D02*
G75*
G02*
X224250000Y165100000I2000000J0D01*
G01*
X132620000Y165100000D02*
G75*
G02*
X134620000Y163100000I0J-2000000D01*
G01*
X99817000Y165100000D02*
X132620000Y165100000D01*
X21615400Y159391600D02*
X21615400Y68116200D01*
X21615400Y159391600D02*
G75*
G02*
X23615400Y161391600I2000000J0D01*
G01*
X23615400Y66116200D02*
G75*
G02*
X21615400Y68116200I0J2000000D01*
G01*
X23615400Y66116200D02*
X59637008Y66116200D01*
X57715400Y161391600D02*
X23615400Y161391600D01*
X59637008Y66116200D02*
G75*
G02*
X59844035Y66105456I-8J-2000100D01*
G01*
X59715400Y164141400D02*
X59715400Y163391600D01*
X59715400Y164141400D02*
G75*
G02*
X61715400Y166141400I2000000J0D01*
G01*
X59715400Y163391600D02*
G75*
G02*
X57715400Y161391600I-2000000J0D01*
G01*
X59844035Y66105456D02*
X65284117Y65539294D01*
X65284117Y65539294D02*
G75*
G02*
X65423597Y65519796I-207017J-1989494D01*
G01*
X65423596Y65519792D02*
X82883168Y62448420D01*
X76765400Y166141400D02*
X61715400Y166141400D01*
X78765400Y168891200D02*
X78765400Y168141400D01*
X78765400Y168891200D02*
G75*
G02*
X80765400Y170891200I2000000J0D01*
G01*
X78765400Y168141400D02*
G75*
G02*
X76765400Y166141400I-2000000J0D01*
G01*
X82883168Y62448420D02*
G75*
G02*
X84463250Y61015582I-346468J-1969720D01*
G01*
X84463245Y61015581D02*
X88136257Y47835948D01*
X89545856Y46440837D02*
G75*
G02*
X88136272Y47835952I516844J1931863D01*
G01*
X89545856Y46440837D02*
X104927072Y42325036D01*
X95840800Y170891200D02*
X80765400Y170891200D01*
X95840800Y170891200D02*
G75*
G02*
X97840800Y168891200I0J-2000000D01*
G01*
X97817158Y167126796D02*
X97840800Y168891200D01*
X99816978Y165100000D02*
G75*
G02*
X97817180Y167126796I22J2000000D01*
G01*
X107375734Y43738780D02*
G75*
G02*
X104927080Y42325064I-1931734J518420D01*
G01*
X107375734Y43738780D02*
X118093162Y83683429D01*
X118093162Y83683429D02*
G75*
G02*
X120026214Y85165191I1931838J-518429D01*
G01*
X120026214Y85165146D02*
X153476427Y85142174D01*
X134620000Y163100000D02*
X134620000Y162366200D01*
X135620000Y161366200D02*
G75*
G02*
X134620000Y162366200I0J1000000D01*
G01*
X135620000Y161366200D02*
X153477800Y161366200D01*
X153477800Y161366200D02*
G75*
G02*
X155477800Y159366200I0J-2000000D01*
G01*
X155477800Y159366200D02*
X155477800Y148007600D01*
X155477800Y144007600D02*
X155477800Y128007600D01*
X155477800Y124007600D02*
X155477800Y108808600D01*
X155477800Y104808600D02*
X155477800Y93808600D01*
X155477800Y87142174D02*
G75*
G02*
X153476427Y85142200I-2000000J26D01*
G01*
X155477800Y87142174D02*
X155477800Y89808600D01*
X157477800Y148007600D02*
X157480181Y159367019D01*
X157477800Y128007600D02*
X157477800Y144007600D01*
X157477800Y124007600D02*
X157478393Y118266393D01*
X157477800Y112261646D02*
G75*
G02*
X159475752Y114261699I2000100J-46D01*
G01*
X157477800Y108808600D02*
X157477800Y112261646D01*
X157477800Y93808600D02*
X157477800Y104808600D01*
X157478644Y89808600D02*
X157480239Y71167429D01*
X157480181Y159367019D02*
G75*
G02*
X159480181Y161366619I2000019J-419D01*
G01*
X159478393Y116266600D02*
G75*
G02*
X157478400Y118266393I7J2000000D01*
G01*
X159478393Y116266600D02*
X164315300Y116266600D01*
X159480457Y69167600D02*
G75*
G02*
X157480300Y71167429I-257J1999900D01*
G01*
X159480457Y69167600D02*
X197124906Y69171695D01*
X164315300Y114266600D02*
X159475752Y114261645D01*
X168315300Y116266600D02*
X189315300Y116266600D01*
X189315300Y114266600D02*
X168315300Y114266600D01*
X193315300Y116266600D02*
X197136402Y116283035D01*
X193315300Y114266600D02*
X197132107Y114266600D01*
X197127800Y161366600D02*
X159480181Y161366600D01*
X197127800Y161366600D02*
G75*
G02*
X199127800Y159366600I0J-2000000D01*
G01*
X197132107Y114266600D02*
G75*
G02*
X199132098Y112264108I-7J-2000000D01*
G01*
X199124688Y71171361D02*
G75*
G02*
X197124906Y69171712I-1999988J339D01*
G01*
X199127800Y159366600D02*
X199127800Y148007600D01*
X199127800Y144007600D02*
X199127800Y128007600D01*
X199127800Y124007600D02*
X199127800Y118283016D01*
X199127800Y118283016D02*
G75*
G02*
X197136402Y116283018I-2000000J-16D01*
G01*
X199127800Y104808600D02*
X199127800Y93808600D01*
X199127800Y89808600D02*
X199124688Y71171361D01*
X199132105Y112264108D02*
X199127800Y108808600D01*
X201127800Y159391600D02*
G75*
G02*
X203127800Y161391600I2000000J0D01*
G01*
X201127800Y148007600D02*
X201127800Y159391600D01*
X201127800Y144007600D02*
X201127800Y128007600D01*
X201127800Y124007600D02*
X201127800Y108808600D01*
X201127800Y93808600D02*
X201127800Y104808600D01*
X201127800Y89808600D02*
X201127800Y87191600D01*
X203127800Y85191600D02*
G75*
G02*
X201127800Y87191600I0J2000000D01*
G01*
X221250000Y161391600D02*
X203127800Y161391600D01*
X222250000Y162391600D02*
G75*
G02*
X221250000Y161391600I-1000000J0D01*
G01*
X222250000Y162391600D02*
X222250000Y163100000D01*
X224250000Y165100000D02*
X256699000Y165100000D01*
X236539843Y85191600D02*
X203127800Y85191600D01*
X236539843Y85191600D02*
G75*
G02*
X238471558Y83709589I-43J-2000000D01*
G01*
X249189672Y43739139D02*
X238471598Y83709600D01*
X251638411Y42325112D02*
G75*
G02*
X249189667Y43739138I-517011J1931988D01*
G01*
X258699000Y168916600D02*
G75*
G02*
X260699000Y170916600I2000000J0D01*
G01*
X258699000Y167100000D02*
G75*
G02*
X256699000Y165100000I-2000000J0D01*
G01*
X258699000Y167100000D02*
X258699000Y168916600D01*
X260699000Y170916600D02*
X275799800Y170916600D01*
X267019344Y46440837D02*
X251638411Y42325112D01*
X268428943Y47835947D02*
G75*
G02*
X267019349Y46440819I-1926743J537053D01*
G01*
X272101956Y61015581D02*
X268428943Y47835947D01*
X272101956Y61015581D02*
G75*
G02*
X273682033Y62448414I1926544J-536881D01*
G01*
X275799800Y170916600D02*
G75*
G02*
X277799800Y168916600I0J-2000000D01*
G01*
X277799800Y168916600D02*
X277799800Y168166800D01*
X279799800Y166166800D02*
G75*
G02*
X277799800Y168166800I0J2000000D01*
G01*
X279799800Y166166800D02*
X294849800Y166166800D01*
X291141604Y65519792D02*
X273682032Y62448420D01*
X291141604Y65519792D02*
G75*
G02*
X291281083Y65539290I346496J-1969992D01*
G01*
X294849800Y166166800D02*
G75*
G02*
X296849800Y164166800I0J-2000000D01*
G01*
X296721165Y66105456D02*
X291281083Y65539294D01*
X296721165Y66105456D02*
G75*
G02*
X296928192Y66116200I207035J-1989356D01*
G01*
X296849800Y164166800D02*
X296849800Y163391600D01*
X298849800Y161391600D02*
G75*
G02*
X296849800Y163391600I0J2000000D01*
G01*
X298849800Y161391600D02*
X332949800Y161391600D01*
X332949800Y161391600D02*
G75*
G02*
X334949800Y159391600I0J-2000000D01*
G01*
X332949800Y66116200D02*
X296928192Y66116200D01*
X334949800Y159391600D02*
X334949800Y68116200D01*
X334949800Y68116200D02*
G75*
G02*
X332949800Y66116200I-2000000J0D01*
G01*
D11*
%TO.C,REF\u002A\u002A10*%
X155477800Y89808600D02*
G75*
G02*
X157477800Y89808600I1000000J0D01*
G01*
X157477800Y93808600D02*
G75*
G02*
X155477800Y93808600I-1000000J0D01*
G01*
X155477800Y124007600D02*
G75*
G02*
X157477800Y124007600I1000000J0D01*
G01*
X157477800Y128007600D02*
G75*
G02*
X155477800Y128007600I-1000000J0D01*
G01*
X199127800Y124007600D02*
G75*
G02*
X201127800Y124007600I1000000J0D01*
G01*
X201127800Y128007600D02*
G75*
G02*
X199127800Y128007600I-1000000J0D01*
G01*
X199127800Y104808600D02*
G75*
G02*
X201127800Y104808600I1000000J0D01*
G01*
X201127800Y108808600D02*
G75*
G02*
X199127800Y108808600I-1000000J0D01*
G01*
D10*
%TO.C,J1*%
X179377800Y93667600D02*
X179377800Y94167600D01*
D11*
X180377800Y95167600D02*
X183877800Y95167600D01*
X183877800Y92667600D02*
X180377800Y92667600D01*
D10*
X184877800Y94167600D02*
X184877800Y93667600D01*
D11*
X179377800Y94167600D02*
G75*
G02*
X180377800Y95167600I1000000J0D01*
G01*
X180377800Y92667600D02*
G75*
G02*
X179377800Y93667600I0J1000000D01*
G01*
X183877800Y95167600D02*
G75*
G02*
X184877800Y94167600I0J-1000000D01*
G01*
X184877800Y93667600D02*
G75*
G02*
X183877800Y92667600I-1000000J0D01*
G01*
%TO.C,REF\u002A\u002A2*%
X164315300Y116266600D02*
G75*
G02*
X164315300Y114266600I0J-1000000D01*
G01*
X168315300Y114266600D02*
G75*
G02*
X168315300Y116266600I0J1000000D01*
G01*
%TO.C,REF\u002A\u002A10*%
X199127800Y89808600D02*
G75*
G02*
X201127800Y89808600I1000000J0D01*
G01*
X201127800Y93808600D02*
G75*
G02*
X199127800Y93808600I-1000000J0D01*
G01*
%TO.C,REF\u002A\u002A2*%
X189315300Y116266600D02*
G75*
G02*
X189315300Y114266600I0J-1000000D01*
G01*
X193315300Y114266600D02*
G75*
G02*
X193315300Y116266600I0J1000000D01*
G01*
%TO.C,REF\u002A\u002A10*%
X155477800Y144007600D02*
G75*
G02*
X157477800Y144007600I1000000J0D01*
G01*
X157477800Y148007600D02*
G75*
G02*
X155477800Y148007600I-1000000J0D01*
G01*
D10*
%TO.C,J2*%
X179377800Y157866600D02*
X179377800Y158366600D01*
D11*
X180377800Y159366600D02*
X183877800Y159366600D01*
X183877800Y156866600D02*
X180377800Y156866600D01*
D10*
X184877800Y158366600D02*
X184877800Y157866600D01*
D11*
X179377800Y158366600D02*
G75*
G02*
X180377800Y159366600I1000000J0D01*
G01*
X180377800Y156866600D02*
G75*
G02*
X179377800Y157866600I0J1000000D01*
G01*
X183877800Y159366600D02*
G75*
G02*
X184877800Y158366600I0J-1000000D01*
G01*
X184877800Y157866600D02*
G75*
G02*
X183877800Y156866600I-1000000J0D01*
G01*
%TO.C,REF\u002A\u002A10*%
X155477800Y104808600D02*
G75*
G02*
X157477800Y104808600I1000000J0D01*
G01*
X157477800Y108808600D02*
G75*
G02*
X155477800Y108808600I-1000000J0D01*
G01*
X199127800Y144007600D02*
G75*
G02*
X201127800Y144007600I1000000J0D01*
G01*
X201127800Y148007600D02*
G75*
G02*
X199127800Y148007600I-1000000J0D01*
G01*
%TD*%
M02*
